# xmcd
#
# Track frame offsets:
#	150
#	12195
#	27033
#	39528
#	58059
#	78537
#	92816
#	105342
#	121548
#	136677
#	156117
#	171540
#	187854
#	199125
#	211735
#	229401
#	246692
#	264100
#
# Disc length: 3733 seconds
#
# Revision: 2
# Processed by: cddbd v1.5.2PL0 Copyright (c) Steve Scherf et al.
# Submitted via: audiograbber 1.83.01
#
DISCID=e70e9312
DTITLE=Ric Segreto - 18 Greatest Hits - Ric Segreto (2011) (Zo)
DYEAR=2011
DGENRE=OPM
TTITLE0=Kahit Konting Pagtingin
TTITLE1=Give Me A Chance
TTITLE2=Don't Know What To Say
TTITLE3=Loving You
TTITLE4=Angela
TTITLE5=Come Back To Me
TTITLE6=Do Ya, Do Ya Ever, Do Ya?
TTITLE7=Hold On To My Love
TTITLE8=Slippin' Away
TTITLE9=Even Just Once More
TTITLE10=Nang Dahil Sa Iyo
TTITLE11=All I Wanna Do
TTITLE12=I Thought She Was You
TTITLE13=Since You Said Goodbye
TTITLE14=Touched By The Rainbow
TTITLE15=Dasal
TTITLE16=Labis Din Kaya?
TTITLE17=Stay
EXTD=
EXTT0=
EXTT1=
EXTT2=
EXTT3=
EXTT4=
EXTT5=
EXTT6=
EXTT7=
EXTT8=
EXTT9=
EXTT10=
EXTT11=
EXTT12=
EXTT13=
EXTT14=
EXTT15=
EXTT16=
EXTT17=
PLAYORDER=
